:FULLY-SPECIFIED
:FORCE-ALL-JOINTS-BE-3DOF
:DEGREES
849
root 3.86827 16.3044 28.1551 -9.35105 6.8934 359.488
lfemur -22.827 0.753677 -17.6042
ltibia 37.3017 0 0
lfoot -7.62458 -12.9501 0
ltoes 2.27177 0 0
rfemur -35.3456 -3.21261 0.778655
rtibia 105.72 0 0
rfoot 36.1921 21.2307 0
rtoes -4.29163 0 0
lowerback 4.21078 3.01356 -2.94181
upperback 1.07034 3.88899 0.282727
thorax -1.46541 1.9528 1.72885
lowerneck -6.30681 -3.76336 2.4776
upperneck 9.00581 -5.44222 1.35063
head 4.03987 -2.53659 -0.281941
lclavicle 1.09778e-14 9.04789e-15 0
lhumerus -50.4585 -10.4625 84.109
lradius 55.7198 0 0
lwrist 20.9858 0 0
lhand -2.90744 3.53527 0
lfingers 7.12502 0 0
lthumb 22.8027 32.206 0
rclavicle 1.09778e-14 9.04789e-15 0
rhumerus -38.7267 14.5546 -66.5473
rradius 50.9013 0 0
rwrist 9.48399 0 0
rhand -36.5117 -33.0792 0
rfingers 7.12502 0 0
rthumb -9.60352 -782.84 0
850
root 3.87714 16.3096 28.2488 -10.0412 7.93796 359.696
lfemur -21.8897 1.05698 -18.1244
ltibia 37.371 0 0
lfoot -7.79879 -14.0553 0
ltoes 3.63615 0 0
rfemur -38.8527 -2.82132 0.792745
rtibia 106.886 0 0
rfoot 35.1174 19.937 0
rtoes -3.83925 0 0
lowerback 5.09656 2.63829 -3.33792
upperback 1.38687 3.3367 0.138046
thorax -1.61416 1.67643 1.81134
lowerneck -6.24311 -3.73789 2.46577
upperneck 8.92165 -5.41403 1.47377
head 4.00181 -2.51936 -0.23498
lclavicle 5.71253e-15 6.61378e-15 0
lhumerus -49.401 -11.3334 83.7127
lradius 55.5962 0 0
lwrist 21.2354 0 0
lhand -2.40627 3.59157 0
lfingers 7.12502 0 0
lthumb 23.2834 32.2007 0
rclavicle 5.71253e-15 6.61378e-15 0
rhumerus -39.6486 13.5531 -65.5804
rradius 50.88 0 0
rwrist 9.22517 0 0
rhand -36.1954 -33.2838 0
rfingers 7.12502 0 0
rthumb -9.29833 -783.057 0
851
root 3.88529 16.3178 28.3458 -10.7678 9.04469 359.87
lfemur -20.8804 1.42483 -18.6057
ltibia 37.3843 0 0
lfoot -7.90281 -15.2879 0
ltoes 5.23771 0 0
rfemur -42.4161 -2.40853 0.886791
rtibia 107.475 0 0
rfoot 33.8866 18.2957 0
rtoes -3.23947 0 0
lowerback 6.02884 2.23797 -3.71057
upperback 1.72168 2.74698 -0.0154738
thorax -1.76273 1.38118 1.88019
lowerneck -6.17014 -3.70965 2.45666
upperneck 8.83816 -5.38378 1.61568
head 3.96274 -2.50025 -0.182045
lclavicle 9.34086e-16 6.09218e-15 0
lhumerus -48.2672 -12.2547 83.2913
lradius 55.4431 0 0
lwrist 21.4857 0 0
lhand -1.86954 3.65464 0
lfingers 7.12502 0 0
lthumb 23.7981 32.1966 0
rclavicle 9.34086e-16 6.09218e-15 0
rhumerus -40.6512 12.5139 -64.6072
rradius 50.9038 0 0
rwrist 8.84491 0 0
rhand -35.701 -33.3306 0
rfingers 7.12502 0 0
rthumb -8.82116 -783.122 0
852
root 3.89275 16.3289 28.443 -11.5043 10.1762 360.004
lfemur -19.8345 1.83602 -19.0343
ltibia 37.3374 0 0
lfoot -7.93001 -16.5966 0
ltoes 7.00837 0 0
rfemur -45.8977 -1.99189 1.04803
rtibia 107.473 0 0
rfoot 32.5379 16.3806 0
rtoes -2.49388 0 0
lowerback 6.97366 1.8264 -4.04789
upperback 2.06212 2.14077 -0.171444
thorax -1.90678 1.0776 1.93438
lowerneck -6.09276 -3.68022 2.44963
upperneck 8.75991 -5.35324 1.76987
head 3.92504 -2.48032 -0.125437
lclavicle -3.10196e-15 6.56509e-15 0
lhumerus -47.0972 -13.1957 82.8631
lradius 55.2701 0 0
lwrist 21.7306 0 0
lhand -1.30931 3.72366 0
lfingers 7.12502 0 0
lthumb 24.3353 32.1943 0
rclavicle -3.10196e-15 6.56509e-15 0
rhumerus -41.6962 11.4668 -63.652
rradius 50.9656 0 0
rwrist 8.36133 0 0
rhand -35.0425 -33.2295 0
rfingers 7.12502 0 0
rthumb -8.18563 -783.045 0
853
root 3.89953 16.3428 28.5372 -12.224 11.295 360.094
lfemur -18.7869 2.26934 -19.3966
ltibia 37.2256 0 0
lfoot -7.87376 -17.9303 0
ltoes 8.88006 0 0
rfemur -49.1594 -1.58906 1.26369
rtibia 106.862 0 0
rfoot 31.1093 14.2657 0
rtoes -1.60408 0 0
lowerback 7.89712 1.41739 -4.33803
upperback 2.39558 1.53903 -0.323473
thorax -2.04194 0.776234 1.97289
lowerneck -6.01579 -3.65119 2.44405
upperneck 8.69147 -5.32414 1.92984
head 3.89108 -2.46064 -0.067456
lclavicle -6.14002e-15 7.1145e-15 0
lhumerus -45.9315 -14.1258 82.4467
lradius 55.0866 0 0
lwrist 21.964 0 0
lhand -0.737663 3.7978 0
lfingers 7.12502 0 0
lthumb 24.8833 32.1944 0
rclavicle -6.14002e-15 7.1145e-15 0
rhumerus -42.7451 10.4422 -62.7389
rradius 51.0583 0 0
rwrist 7.79254 0 0
rhand -34.2341 -32.99 0
rfingers 7.12502 0 0
rthumb -7.40537 -782.834 0
854
root 3.90564 16.3594 28.625 -12.8999 12.3639 360.134
lfemur -17.7729 2.7036 -19.6791
ltibia 37.0444 0 0
lfoot -7.72744 -19.2374 0
ltoes 10.7847 0 0
rfemur -52.0629 -1.21768 1.521
rtibia 105.626 0 0
rfoot 29.6388 12.0248 0
rtoes -0.571653 0 0
lowerback 8.76527 1.02473 -4.56911
upperback 2.7094 0.962715 -0.465173
thorax -2.16384 0.487615 1.9947
lowerneck -5.94408 -3.62413 2.43927
upperneck 8.63739 -5.29823 2.08909
head 3.86324 -2.44226 -0.0104045
lclavicle -7.92451e-15 6.82241e-15 0
lhumerus -44.8104 -15.0142 82.0607
lradius 54.9023 0 0
lwrist 22.1797 0 0
lhand -0.16667 3.87624 0
lfingers 7.12502 0 0
lthumb 25.4305 32.1976 0
rclavicle -7.92451e-15 6.82241e-15 0
rhumerus -43.7596 9.46988 -61.8923
rradius 51.1749 0 0
rwrist 7.15668 0 0
rhand -33.2899 -32.6219 0
rfingers 7.12502 0 0
rthumb -6.49399 -782.497 0
855
root 3.91112 16.3785 28.7032 -13.5055 13.3453 360.119
lfemur -16.8275 3.11758 -19.868
ltibia 36.7894 0 0
lfoot -7.48443 -20.4669 0
ltoes 12.6542 0 0
rfemur -54.4701 -0.895408 1.80721
rtibia 103.749 0 0
rfoot 28.1646 9.73185 0
rtoes 0.601799 0 0
lowerback 9.5442 0.662239 -4.72927
upperback 2.99097 0.432771 -0.590153
thorax -2.26813 0.222285 1.99879
lowerneck -5.88246 -3.60063 2.43466
upperneck 8.60225 -5.27727 2.24114
head 3.84389 -2.42627 0.0434165
lclavicle -8.19987e-15 4.77083e-15 0
lhumerus -43.7742 -15.8302 81.7234
lradius 54.7266 0 0
lwrist 22.3715 0 0
lhand 0.391591 3.95817 0
lfingers 7.12502 0 0
lthumb 25.9654 32.2045 0
rclavicle -8.19987e-15 4.77083e-15 0
rhumerus -44.7012 8.58011 -61.1365
rradius 51.3081 0 0
rwrist 6.47186 0 0
rhand -32.2241 -32.1349 0
rfingers 7.12502 0 0
rthumb -5.46513 -782.044 0
856
root 3.92011 16.41 28.7721 -13.9296 14.2011 359.968
lfemur -15.9938 3.48684 -19.8645
ltibia 36.2837 0 0
lfoot -6.95325 -21.537 0
ltoes 14.4648 0 0
rfemur -55.6581 -0.729131 2.10874
rtibia 99.1845 0 0
rfoot 25.9055 7.48919 0
rtoes 1.88463 0 0
lowerback 10.1583 0.325609 -4.72885
upperback 3.20943 -0.0423175 -0.674395
thorax -2.3461 -0.0145987 1.97138
lowerneck -5.89362 -3.57813 2.42547
upperneck 8.59339 -5.25886 2.37442
head 3.84775 -2.41145 0.0896671
lclavicle -2.3264e-16 5.95311e-15 0
lhumerus -42.7412 -16.6156 81.5133
lradius 54.6405 0 0
lwrist 22.4966 0 0
lhand 1.21135 4.07049 0
lfingers 7.12502 0 0
lthumb 26.7495 32.1932 0
rclavicle -2.3264e-16 5.95311e-15 0
rhumerus -45.5387 7.59628 -60.2647
rradius 51.4283 0 0
rwrist 5.62206 0 0
rhand -30.2508 -31.5343 0
rfingers 7.12502 0 0
rthumb -3.55949 -781.461 0
